<?xml version="1.0" encoding="UTF-8"?>
<svg width="738px" height="144px" viewBox="0 0 738 144" version="1.1" xmlns="http://www.w3.org/2000/svg" xmlns:xlink="http://www.w3.org/1999/xlink" style="background: #FFFFFF;">
    <!-- Generator: Sketch 47 (45396) - http://www.bohemiancoding.com/sketch -->
    <title>2.1</title>
    <desc>Created with Sketch.</desc>
    <defs></defs>
    <g id="Page-1" stroke="none" stroke-width="1" fill="none" fill-rule="evenodd">
        <g id="2.1">
            <g id="Group" transform="translate(0.000000, 3.000000)">
                <path d="M146.928953,8.93585853 L146.928953,5.85957937 C146.928953,4.1605973 145.551656,2.7833002 143.852673,2.7833002 L143.852673,2.7833002 L142.827247,2.7833002 L142.827247,2.7833002 C141.128265,2.7833002 139.750968,4.1605973 139.750968,5.85957937 L139.750968,5.85957937 L139.750968,8.93585853 L136.674689,8.93585853 C134.975707,8.93585853 133.59841,10.3131556 133.59841,12.0121377 L133.59841,12.0121377 L133.59841,13.0375641 L133.59841,13.0375641 C133.59841,14.7365462 134.975707,16.1138433 136.674689,16.1138433 L136.674689,16.1138433 L139.750968,16.1138433 L139.750968,19.1901224 C139.750968,20.8891045 141.128265,22.2664016 142.827247,22.2664016 L142.827247,22.2664016 L143.852673,22.2664016 C145.551656,22.2664016 146.928953,20.8891045 146.928953,19.1901224 L146.928953,19.1901224 L146.928953,16.1138433 L150.005232,16.1138433 C151.704214,16.1138433 153.081511,14.7365462 153.081511,13.0375641 L153.081511,13.0375641 L153.081511,12.0121377 C153.081511,10.3131556 151.704214,8.93585853 150.005232,8.93585853 L150.005232,8.93585853 L146.928953,8.93585853 Z" id="Combined-Shape" fill="#FFDD00"></path>
                <g id="Logo" transform="translate(38.966203, 0.000000)">
                    <polygon id="Fill-1" fill="#FF9100" points="41.6055392 24.6941932 9.35764722 24.4987823 25.1936656 125.103487 28.6487969 125.103487 60.3208336 125.103487 63.7759649 125.103487 79.6119833 24.4987823"></polygon>
                    <polygon id="Fill-2" fill="#FFDD00" points="41.6055392 24.6941932 9.35764722 24.4987823 25.1936656 125.103487 28.6487969 125.103487 52.2588606 125.103487 55.7139919 125.103487 71.5500103 24.4987823"></polygon>
                    <polygon id="Fill-3" fill="#FFFFFF" points="0.143963803 24.4988403 83.3550422 24.4988403 83.3550422 15.221173 0.143963803 15.221173"></polygon>
                    <polygon id="Stroke-4" stroke="#000000" stroke-width="4.3189141" points="0.143963803 24.4988403 83.3550422 24.4988403 83.3550422 15.221173 0.143963803 15.221173"></polygon>
                    <polygon id="Fill-6" fill="#FFFFFF" points="67.2310962 0.144963552 47.3640913 0.144963552 35.5590594 0.144963552 15.6920546 0.144963552 9.64557483 14.0614645 35.5590594 14.0614645 47.3640913 14.0614645 73.2775759 14.0614645"></polygon>
                    <g id="Group-11" transform="translate(3.455131, 0.000000)" stroke-width="4.3189141">
                        <polygon id="Stroke-7" stroke="#050505" points="63.7759649 0.144963552 43.90896 0.144963552 32.1039282 0.144963552 12.2369233 0.144963552 6.19044355 14.0614645 32.1039282 14.0614645 43.90896 14.0614645 69.8224446 14.0614645"></polygon>
                        <polygon id="Stroke-9" stroke="#000000" points="38.1504079 24.6941932 0.143963803 24.4987823 15.9799822 125.103487 19.4351135 125.103487 56.8657023 125.103487 60.3208336 125.103487 76.156852 24.4987823"></polygon>
                    </g>
                    <polygon id="Fill-12" fill="#FFFFFF" points="80.7636937 52.9116965 42.8260643 52.9116965 40.0970864 52.9116965 2.15945705 52.9116965 9.25572085 92.9216368 41.4615754 92.5728545 73.6674299 92.9216368"></polygon>
                    <polygon id="Stroke-13" stroke="#000000" stroke-width="4.3189141" points="80.7636937 52.9116965 42.8260643 52.9116965 40.0970864 52.9116965 2.15945705 52.9116965 9.25572085 92.9216368 41.4615754 92.5728545 73.6674299 92.9216368"></polygon>
                </g>
                <circle id="Oval" stroke="#EEEEEE" stroke-width="6.9582505" cx="11.8290258" cy="38.2703777" r="8.3499006"></circle>
                <circle id="Oval" fill="#EEEEEE" cx="134.99006" cy="73.7574553" r="5.5666004"></circle>
                <circle id="Oval" fill="#FF813F" cx="30.6163022" cy="105.765408" r="5.5666004"></circle>
            </g>
            <g id="Page-1" transform="translate(164.000000, 36.000000)" fill="#000000">
                <g id="Group-3" transform="translate(0.000000, 0.181000)">
                    <path d="M37.3628,51.7249 C36.4168,53.5369 35.1158,55.1149 33.4608,56.4539 C31.8058,57.7939 29.8748,58.8849 27.6678,59.7249 C25.4608,60.5669 23.2398,61.1319 21.0068,61.4199 C18.7728,61.7089 16.6048,61.6839 14.5038,61.3409 C12.4018,60.9999 10.6138,60.3039 9.1438,59.2519 L10.7998,41.9899 C12.3228,41.4649 14.2398,40.9259 16.5528,40.3739 C18.8648,39.8229 21.2428,39.4279 23.6868,39.1919 C26.1308,38.9549 28.4418,38.9829 30.6238,39.2709 C32.8028,39.5599 34.5248,40.2559 35.7858,41.3599 C36.4688,41.9899 37.0478,42.6729 37.5208,43.4089 C37.9928,44.1449 38.2818,44.9069 38.3878,45.6949 C38.6498,47.9019 38.3088,49.9119 37.3628,51.7249 L37.3628,51.7249 Z M13.3208,14.9539 C14.4248,14.2709 15.7518,13.6659 17.3018,13.1399 C18.8518,12.6159 20.4418,12.2469 22.0708,12.0369 C23.6988,11.8279 25.2888,11.7999 26.8398,11.9579 C28.3888,12.1159 29.7568,12.5489 30.9388,13.2579 C32.1208,13.9679 33.0008,14.9929 33.5788,16.3319 C34.1568,17.6729 34.3148,19.3679 34.0518,21.4169 C33.8418,23.0459 33.1968,24.4259 32.1208,25.5549 C31.0438,26.6859 29.7288,27.6309 28.1798,28.3929 C26.6298,29.1559 24.9878,29.7599 23.2538,30.2049 C21.5188,30.6529 19.8498,30.9819 18.2478,31.1909 C16.6448,31.4019 15.2528,31.5339 14.0708,31.5849 C12.8878,31.6379 12.1118,31.6639 11.7448,31.6639 L13.3208,14.9539 Z M45.8758,40.5709 C45.0348,38.7329 43.9048,37.1169 42.4868,35.7229 C41.0678,34.3309 39.3848,33.3199 37.4418,32.6889 C38.2818,32.0059 39.1098,30.9289 39.9248,29.4569 C40.7388,27.9869 41.4348,26.3829 42.0128,24.6489 C42.5908,22.9139 42.9858,21.1679 43.1958,19.4069 C43.4048,17.6469 43.3258,16.1359 42.9598,14.8739 C42.0648,11.7219 40.6598,9.2519 38.7418,7.4649 C36.8228,5.6789 34.5908,4.4439 32.0418,3.7599 C29.4928,3.0789 26.6818,2.9329 23.6078,3.3269 C20.5338,3.7209 17.3928,4.4959 14.1888,5.6519 C14.1888,5.3899 14.2148,5.1139 14.2678,4.8249 C14.3188,4.5369 14.3458,4.2339 14.3458,3.9179 C14.3458,3.1299 13.9518,2.4479 13.1638,1.8689 C12.3758,1.2909 11.4688,0.9499 10.4448,0.8439 C9.4198,0.7399 8.4208,0.9619 7.4488,1.5139 C6.4758,2.0659 5.8058,3.0789 5.4388,4.5479 C5.0178,9.2779 4.5978,14.1919 4.1778,19.2879 C3.7568,24.3859 3.3108,29.5359 2.8378,34.7389 C2.3648,39.9409 1.8918,45.1039 1.4188,50.2269 C0.9458,55.3509 0.4728,60.2769 -0.0002,65.0059 C0.1578,66.4249 0.5518,67.5289 1.1828,68.3169 C1.8128,69.1059 2.5488,69.5789 3.3898,69.7359 C4.2298,69.8939 5.1108,69.7479 6.0298,69.3019 C6.9488,68.8569 7.7508,68.0799 8.4348,66.9769 C10.5358,68.1329 12.9008,68.8819 15.5288,69.2239 C18.1558,69.5649 20.8218,69.5649 23.5298,69.2239 C26.2348,68.8819 28.9018,68.2389 31.5298,67.2919 C34.1568,66.3469 36.5478,65.1639 38.7028,63.7459 C40.8568,62.3269 42.6698,60.7099 44.1418,58.8979 C45.6128,57.0839 46.5848,55.1269 47.0578,53.0259 C47.5308,50.8709 47.6618,48.7169 47.4518,46.5619 C47.2418,44.4079 46.7158,42.4119 45.8758,40.5709 L45.8758,40.5709 Z" id="Fill-1"></path>
                </g>
                <g id="Group-6" transform="translate(48.000000, 22.181000)">
                    <path d="M74.769,60.1897 C74.48,61.9237 74.072,63.7497 73.547,65.6687 C73.021,67.5857 72.404,69.3337 71.695,70.9107 C70.986,72.4867 70.197,73.7597 69.331,74.7327 C68.463,75.7047 67.53,76.1127 66.532,75.9557 C65.744,75.8487 65.244,75.3497 65.035,74.4577 C64.824,73.5627 64.824,72.4597 65.035,71.1467 C65.244,69.8327 65.651,68.3477 66.256,66.6927 C66.86,65.0377 67.596,63.3947 68.463,61.7667 C69.331,60.1367 70.316,58.5747 71.419,57.0767 C72.523,55.5797 73.678,54.3307 74.887,53.3327 C75.15,53.6477 75.268,54.4357 75.242,55.6977 C75.214,56.9587 75.057,58.4567 74.769,60.1897 M101.491,25.9807 C100.781,25.1927 99.914,24.7467 98.889,24.6407 C97.865,24.5357 96.826,25.1137 95.776,26.3747 C95.092,27.6357 94.225,28.8447 93.174,30.0007 C92.123,31.1577 91.033,32.2077 89.903,33.1537 C88.773,34.0987 87.696,34.9147 86.671,35.5967 C85.647,36.2807 84.845,36.7797 84.267,37.0947 C84.057,35.4137 83.938,33.6007 83.913,31.6557 C83.885,29.7117 83.925,27.7417 84.031,25.7447 C84.188,22.9067 84.516,20.0437 85.016,17.1527 C85.515,14.2627 86.238,11.4247 87.184,8.6387 C87.184,7.1687 86.841,5.9727 86.159,5.0527 C85.475,4.1337 84.648,3.5547 83.676,3.3187 C82.703,3.0827 81.706,3.2137 80.681,3.7127 C79.656,4.2127 78.776,5.1197 78.04,6.4317 C77.41,8.1667 76.687,10.1107 75.873,12.2647 C75.057,14.4197 74.138,16.6137 73.114,18.8467 C72.089,21.0817 70.946,23.2487 69.685,25.3497 C68.423,27.4527 67.044,29.3187 65.546,30.9467 C64.049,32.5757 62.419,33.8507 60.66,34.7697 C58.898,35.6897 56.995,36.0967 54.945,35.9917 C53.998,35.7287 53.315,35.0197 52.895,33.8627 C52.474,32.7077 52.225,31.2617 52.147,29.5277 C52.068,27.7937 52.147,25.8887 52.383,23.8127 C52.62,21.7377 52.935,19.6747 53.329,17.6257 C53.723,15.5757 54.157,13.6317 54.629,11.7927 C55.102,9.9537 55.548,8.4027 55.969,7.1417 C56.6,5.6187 56.6,4.3427 55.969,3.3187 C55.339,2.2937 54.472,1.6117 53.369,1.2687 C52.265,0.9277 51.108,0.9417 49.9,1.3087 C48.691,1.6767 47.824,2.4907 47.299,3.7517 C46.405,5.9077 45.59,8.3237 44.855,11.0037 C44.119,13.6837 43.528,16.4567 43.082,19.3197 C42.634,22.1847 42.384,25.0227 42.332,27.8337 C42.329,28.0167 42.338,28.1907 42.337,28.3727 C41.191,31.4277 40.099,33.7367 39.062,35.2817 C37.722,37.2797 36.21,38.1467 34.529,37.8827 C33.792,37.5677 33.308,36.8327 33.072,35.6757 C32.833,34.5207 32.755,33.1017 32.833,31.4187 C32.914,29.7387 33.111,27.8337 33.425,25.7047 C33.742,23.5767 34.134,21.3697 34.607,19.0837 C35.081,16.7967 35.58,14.4997 36.105,12.1867 C36.63,9.8747 37.103,7.6937 37.525,5.6437 C37.472,3.8047 36.933,2.3997 35.908,1.4267 C34.884,0.4557 33.451,0.0747 31.613,0.2837 C30.352,0.8097 29.418,1.4937 28.814,2.3337 C28.209,3.1737 27.723,4.2517 27.356,5.5647 C27.145,6.2487 26.83,7.6147 26.41,9.6647 C25.989,11.7127 25.451,14.0657 24.794,16.7187 C24.137,19.3737 23.362,22.1447 22.469,25.0347 C21.575,27.9247 20.577,30.5407 19.474,32.8777 C18.37,35.2157 17.161,37.0947 15.848,38.5137 C14.534,39.9317 13.115,40.5107 11.591,40.2477 C10.75,40.0897 10.212,39.2227 9.976,37.6467 C9.739,36.0697 9.7,34.1267 9.857,31.8137 C10.015,29.5017 10.33,26.9657 10.803,24.2077 C11.276,21.4487 11.761,18.8347 12.261,16.3637 C12.76,13.8947 13.22,11.7127 13.641,9.8217 C14.061,7.9297 14.35,6.6687 14.508,6.0387 C14.508,4.5147 14.165,3.2937 13.483,2.3727 C12.799,1.4547 11.972,0.8757 11,0.6387 C10.027,0.4027 9.029,0.5337 8.005,1.0327 C6.98,1.5327 6.1,2.4397 5.364,3.7517 C5.101,5.1707 4.759,6.8137 4.339,8.6787 C3.918,10.5437 3.512,12.4617 3.118,14.4327 C2.724,16.4037 2.355,18.3347 2.014,20.2267 C1.672,22.1187 1.423,23.7737 1.265,25.1927 C1.16,26.2957 1.041,27.6497 0.911,29.2517 C0.779,30.8557 0.713,32.5497 0.713,34.3357 C0.713,36.1237 0.844,37.8967 1.108,39.6567 C1.37,41.4177 1.843,43.0337 2.526,44.5037 C3.209,45.9757 4.168,47.1837 5.404,48.1297 C6.638,49.0757 8.202,49.6007 10.094,49.7067 C12.037,49.8107 13.732,49.6677 15.178,49.2727 C16.623,48.8787 17.936,48.2607 19.119,47.4197 C20.301,46.5807 21.378,45.5817 22.351,44.4247 C23.322,43.2697 24.282,42.0087 25.228,40.6417 C26.121,42.6397 27.277,44.1887 28.696,45.2927 C30.115,46.3957 31.613,47.0537 33.189,47.2627 C34.765,47.4717 36.369,47.2507 37.998,46.5927 C39.626,45.9367 41.097,44.8197 42.412,43.2427 C43.277,42.2757 44.093,41.1767 44.859,39.9617 C45.184,40.5307 45.53,41.0797 45.919,41.5867 C47.207,43.2697 48.955,44.4247 51.162,45.0557 C53.526,45.6867 55.837,45.7927 58.098,45.3717 C60.357,44.9517 62.512,44.1887 64.561,43.0857 C66.611,41.9817 68.515,40.6557 70.276,39.1047 C72.036,37.5547 73.573,35.9397 74.887,34.2567 C74.834,35.4657 74.808,36.6097 74.808,37.6857 C74.808,38.7637 74.782,39.9317 74.73,41.1937 C72.101,43.0337 69.619,45.2407 67.281,47.8147 C64.942,50.3887 62.892,53.1347 61.132,56.0517 C59.372,58.9677 57.992,61.9237 56.995,64.9187 C55.996,67.9157 55.509,70.7127 55.536,73.3147 C55.562,75.9157 56.179,78.1877 57.388,80.1317 C58.596,82.0767 60.567,83.4687 63.3,84.3097 C66.138,85.2037 68.633,85.2287 70.789,84.3887 C72.943,83.5477 74.821,82.1547 76.424,80.2107 C78.027,78.2667 79.34,75.9157 80.366,73.1567 C81.39,70.3977 82.205,67.5207 82.809,64.5257 C83.413,61.5307 83.794,58.5857 83.952,55.6977 C84.11,52.8067 84.11,50.2307 83.952,47.9717 C88.471,46.0807 92.175,43.6897 95.066,40.7987 C97.956,37.9107 100.347,34.8617 102.239,31.6557 C102.817,30.8677 103.014,29.9217 102.831,28.8187 C102.646,27.7147 102.2,26.7687 101.491,25.9807" id="Fill-4"></path>
                </g>
                <path d="M248.9263,43.1168 C249.0833,41.9088 249.3203,40.6338 249.6353,39.2938 C249.9503,37.9538 250.3453,36.6528 250.8183,35.3918 C251.2903,34.1308 251.8423,33.0408 252.4733,32.1208 C253.1043,31.2018 253.7743,30.5448 254.4833,30.1498 C255.1933,29.7568 255.9143,29.7958 256.6513,30.2678 C257.4393,30.7418 257.9243,31.7398 258.1093,33.2628 C258.2923,34.7888 258.1093,36.4168 257.5573,38.1508 C257.0053,39.8858 256.0203,41.5138 254.6013,43.0378 C253.1833,44.5628 251.2643,45.5598 248.8473,46.0328 C248.7413,45.2988 248.7683,44.3258 248.9263,43.1168 M276.2383,46.3478 C275.3713,46.0868 274.5443,46.0598 273.7553,46.2698 C272.9673,46.4798 272.4673,47.0318 272.2583,47.9258 C271.8363,49.6068 271.1663,51.3278 270.2473,53.0878 C269.3273,54.8488 268.1983,56.5168 266.8593,58.0938 C265.5193,59.6698 264.0073,61.0628 262.3263,62.2708 C260.6443,63.4798 258.8843,64.3468 257.0453,64.8718 C255.2043,65.4508 253.6813,65.5158 252.4733,65.0688 C251.2643,64.6238 250.3053,63.8608 249.5963,62.7838 C248.8873,61.7068 248.3743,60.4058 248.0593,58.8818 C247.7433,57.3578 247.5593,55.7818 247.5073,54.1518 C250.5023,54.3628 253.1693,53.8248 255.5083,52.5358 C257.8453,51.2498 259.8293,49.5408 261.4593,47.4128 C263.0873,45.2848 264.3223,42.8938 265.1633,40.2398 C266.0033,37.5868 266.4773,34.9458 266.5823,32.3178 C266.6343,29.8478 266.2673,27.7598 265.4793,26.0518 C264.6913,24.3448 263.6263,23.0158 262.2863,22.0708 C260.9473,21.1248 259.4093,20.5728 257.6753,20.4158 C255.9423,20.2578 254.1803,20.4948 252.3943,21.1248 C250.2383,21.8608 248.4133,23.0558 246.9163,24.7118 C245.4183,26.3668 244.1693,28.2858 243.1723,30.4658 C242.1733,32.6468 241.3853,34.9978 240.8073,37.5198 C240.2283,40.0428 239.8083,42.5258 239.5463,44.9698 C239.3093,47.1628 239.1833,49.2598 239.1383,51.2838 C239.0263,51.5408 238.9173,51.7878 238.7973,52.0628 C237.9823,53.9298 237.0353,55.7558 235.9593,57.5418 C234.8823,59.3288 233.6863,60.8268 232.3733,62.0348 C231.0593,63.2438 229.6933,63.6638 228.2743,63.2958 C227.4333,63.0868 226.9743,62.1128 226.8953,60.3798 C226.8163,58.6448 226.9073,56.4908 227.1703,53.9158 C227.4333,51.3418 227.7353,48.5548 228.0773,45.5598 C228.4183,42.5648 228.5893,39.7018 228.5893,36.9688 C228.5893,34.6038 228.1423,32.3318 227.2493,30.1498 C226.3553,27.9708 225.1333,26.1568 223.5843,24.7118 C222.0333,23.2658 220.2343,22.3068 218.1853,21.8348 C216.1353,21.3608 213.9283,21.6768 211.5643,22.7798 C209.1983,23.8838 207.3203,25.4338 205.9283,27.4308 C204.5343,29.4288 203.2603,31.5298 202.1053,33.7368 C201.6833,32.0548 201.0673,30.4928 200.2523,29.0468 C199.4373,27.6018 198.4403,26.3408 197.2573,25.2628 C196.0743,24.1868 194.7463,23.3458 193.2773,22.7408 C191.8053,22.1378 190.2543,21.8348 188.6253,21.8348 C187.0493,21.8348 185.5913,22.1378 184.2513,22.7408 C182.9113,23.3458 181.6893,24.1198 180.5853,25.0658 C179.4823,26.0128 178.4843,27.0758 177.5903,28.2588 C176.6973,29.4408 175.9073,30.6108 175.2263,31.7658 C175.1193,30.3998 175.0013,29.2048 174.8713,28.1788 C174.7393,27.1548 174.5023,26.2878 174.1613,25.5788 C173.8193,24.8688 173.3343,24.3308 172.7033,23.9628 C172.0723,23.5958 171.1793,23.4108 170.0243,23.4108 C169.4453,23.4108 168.8663,23.5288 168.2893,23.7648 C167.7103,24.0018 167.1973,24.3308 166.7523,24.7508 C166.3053,25.1728 165.9643,25.6838 165.7283,26.2878 C165.4903,26.8918 165.4263,27.5888 165.5303,28.3768 C165.5823,28.9558 165.7283,29.6508 165.9643,30.4658 C166.2003,31.2808 166.4233,32.3458 166.6343,33.6578 C166.8433,34.9718 167.0143,36.5618 167.1463,38.4268 C167.2773,40.2928 167.3163,42.5788 167.2643,45.2848 C167.2113,47.9918 167.0143,51.1568 166.6733,54.7828 C166.3303,58.4088 165.7923,62.6128 165.0573,67.3938 C164.9523,68.4978 165.3723,69.3918 166.3193,70.0748 C167.2643,70.7568 168.3413,71.1508 169.5503,71.2568 C170.7583,71.3618 171.9023,71.1508 172.9793,70.6268 C174.0563,70.0998 174.6743,69.1808 174.8313,67.8678 C174.9893,65.3978 175.2913,62.7708 175.7383,59.9848 C176.1843,57.2008 176.7363,54.4418 177.3933,51.7088 C178.0503,48.9768 178.7983,46.3758 179.6403,43.9048 C180.4803,41.4348 181.4133,39.2548 182.4383,37.3628 C183.4633,35.4708 184.5273,33.9608 185.6303,32.8308 C186.7343,31.7008 187.8893,31.1358 189.0993,31.1358 C190.5703,31.1358 191.7123,31.8048 192.5283,33.1448 C193.3413,34.4858 193.9193,36.2078 194.2623,38.3078 C194.6033,40.4108 194.7603,42.7108 194.7353,45.2058 C194.7073,47.7018 194.6033,50.1058 194.4193,52.4178 C194.2353,54.7308 194.0253,56.7928 193.7883,58.6058 C193.5523,60.4188 193.3813,61.6678 193.2773,62.3498 C193.2773,63.5588 193.7363,64.5168 194.6553,65.2268 C195.5743,65.9358 196.5993,66.3568 197.7303,66.4878 C198.8603,66.6198 199.9233,66.4088 200.9223,65.8568 C201.9203,65.3048 202.4983,64.3738 202.6563,63.0588 C203.1813,59.2758 203.9043,55.4798 204.8233,51.6698 C205.7423,47.8598 206.7943,44.4448 207.9773,41.4228 C209.1593,38.4008 210.4723,35.9308 211.9183,34.0128 C213.3633,32.0958 214.9003,31.1358 216.5303,31.1358 C217.3693,31.1358 218.0143,31.7148 218.4603,32.8698 C218.9063,34.0258 219.1303,35.6018 219.1303,37.5988 C219.1303,39.0708 219.0123,40.5818 218.7763,42.1318 C218.5393,43.6818 218.2643,45.2848 217.9483,46.9398 C217.6333,48.5958 217.3573,50.2898 217.1203,52.0238 C216.8843,53.7588 216.7663,55.5708 216.7663,57.4628 C216.7663,58.7768 216.8973,60.3008 217.1603,62.0348 C217.4223,63.7678 217.9213,65.4118 218.6573,66.9608 C219.3933,68.5118 220.4043,69.8248 221.6933,70.9018 C222.9803,71.9788 224.6213,72.5178 226.6183,72.5178 C229.6143,72.5178 232.2673,71.8738 234.5803,70.5868 C236.8923,69.2998 238.8763,67.6188 240.5313,65.5428 C240.6173,65.4338 240.6953,65.3178 240.7793,65.2098 C240.9063,65.5168 241.0183,65.8418 241.1613,66.1338 C242.2913,68.4458 243.8283,70.2318 245.7733,71.4938 C247.7163,72.7548 250.0023,73.4508 252.6313,73.5828 C255.2583,73.7128 258.1213,73.2268 261.2233,72.1238 C263.5343,71.2828 265.5443,70.2318 267.2523,68.9708 C268.9593,67.7098 270.4963,66.1728 271.8633,64.3598 C273.2303,62.5468 274.4773,60.4578 275.6083,58.0938 C276.7383,55.7278 277.8803,53.0228 279.0363,49.9738 C279.2463,49.1348 279.0493,48.3858 278.4463,47.7278 C277.8413,47.0718 277.1063,46.6118 276.2383,46.3478" id="Fill-7"></path>
                <path d="M319.0796,37.5592 C318.8156,39.1102 318.4616,40.8192 318.0156,42.6832 C317.5676,44.5492 317.0036,46.4802 316.3206,48.4772 C315.6376,50.4742 314.7966,52.2742 313.7986,53.8762 C312.7996,55.4802 311.6566,56.7532 310.3696,57.6992 C309.0816,58.6452 307.5976,59.0392 305.9156,58.8812 C305.0746,58.7772 304.4306,58.1992 303.9846,57.1472 C303.5376,56.0972 303.3016,54.7562 303.2746,53.1272 C303.2486,51.4992 303.3926,49.7122 303.7086,47.7672 C304.0236,45.8242 304.5096,43.9182 305.1676,42.0522 C305.8236,40.1882 306.6256,38.4662 307.5706,36.8892 C308.5166,35.3132 309.6066,34.0912 310.8426,33.2242 C312.0766,32.3572 313.4306,31.9512 314.9016,32.0022 C316.3726,32.0552 317.9486,32.7902 319.6316,34.2092 C319.5246,34.8932 319.3426,36.0102 319.0796,37.5592 M347.1006,43.5892 C346.2856,43.1692 345.4456,43.0782 344.5786,43.3142 C343.7126,43.5502 343.0936,44.3522 342.7266,45.7182 C342.5166,47.1902 342.0436,48.9232 341.3086,50.9202 C340.5716,52.9172 339.6646,54.8102 338.5886,56.5952 C337.5106,58.3822 336.2756,59.8672 334.8836,61.0492 C333.4906,62.2322 332.0066,62.7712 330.4306,62.6642 C329.1156,62.5602 328.1956,61.8902 327.6716,60.6552 C327.1446,59.4202 326.8696,57.8712 326.8436,56.0042 C326.8166,54.1402 327.0016,52.0382 327.3946,49.6992 C327.7896,47.3612 328.2626,45.0362 328.8136,42.7222 C329.3656,40.4112 329.9306,38.1902 330.5096,36.0622 C331.0866,33.9342 331.5586,32.1342 331.9286,30.6632 C332.3486,29.3492 332.2166,28.2332 331.5336,27.3122 C330.8506,26.3942 329.9966,25.7362 328.9726,25.3422 C327.9466,24.9482 326.9086,24.8432 325.8576,25.0272 C324.8066,25.2112 324.1246,25.7762 323.8086,26.7212 C320.7076,24.0412 317.7256,22.5962 314.8626,22.3862 C311.9976,22.1762 309.3566,22.8072 306.9406,24.2782 C304.5226,25.7492 302.3816,27.8772 300.5166,30.6632 C298.6506,33.4492 297.1396,36.4832 295.9836,39.7672 C294.8276,43.0512 294.1046,46.4022 293.8166,49.8172 C293.5266,53.2332 293.7496,56.3472 294.4866,59.1582 C295.2226,61.9692 296.5216,64.2692 298.3886,66.0542 C300.2526,67.8412 302.7886,68.7352 305.9946,68.7352 C307.4136,68.7352 308.7796,68.4462 310.0936,67.8682 C311.4066,67.2892 312.6156,66.6062 313.7196,65.8182 C314.8226,65.0302 315.7946,64.2022 316.6366,63.3352 C317.4756,62.4682 318.1336,61.7462 318.6066,61.1672 C318.9736,63.0592 319.5786,64.6632 320.4196,65.9762 C321.2596,67.2892 322.2196,68.3682 323.2966,69.2072 C324.3726,70.0472 325.5036,70.6652 326.6856,71.0602 C327.8686,71.4542 329.0116,71.6512 330.1146,71.6512 C332.5846,71.6512 334.8956,70.8102 337.0516,69.1282 C339.2056,67.4482 341.1366,65.3842 342.8456,62.9412 C344.5526,60.4972 345.9586,57.9232 347.0616,55.2162 C348.1656,52.5102 348.9006,50.1062 349.2686,48.0032 C349.6366,47.2152 349.5706,46.3882 349.0716,45.5212 C348.5716,44.6542 347.9156,44.0112 347.1006,43.5892" id="Fill-9"></path>
                <g id="Group-13" transform="translate(363.000000, 1.181000)">
                    <path d="M125.9839,85.9192 C125.5379,87.7052 124.8409,89.2172 123.8949,90.4512 C122.9499,91.6862 121.7669,92.3302 120.3479,92.3832 C119.4549,92.4352 118.7719,91.9622 118.2989,90.9642 C117.8259,89.9652 117.4979,88.6782 117.3139,87.1022 C117.1289,85.5252 117.0499,83.7642 117.0769,81.8202 C117.1029,79.8762 117.1819,77.9582 117.3139,76.0662 C117.4439,74.1752 117.6019,72.4132 117.7869,70.7852 C117.9699,69.1552 118.1139,67.8962 118.2199,67.0022 C120.0059,67.2122 121.4919,67.9862 122.6729,69.3272 C123.8559,70.6672 124.7619,72.2562 125.3929,74.0962 C126.0239,75.9352 126.3909,77.9192 126.4969,80.0472 C126.6009,82.1752 126.4299,84.1322 125.9839,85.9192 M97.4499,85.9192 C97.0039,87.7052 96.3069,89.2172 95.3609,90.4512 C94.4159,91.6862 93.2329,92.3302 91.8139,92.3832 C90.9209,92.4352 90.2379,91.9622 89.7649,90.9642 C89.2919,89.9652 88.9629,88.6782 88.7799,87.1022 C88.5939,85.5252 88.5159,83.7642 88.5429,81.8202 C88.5689,79.8762 88.6479,77.9582 88.7799,76.0662 C88.9099,74.1752 89.0679,72.4132 89.2529,70.7852 C89.4359,69.1552 89.5799,67.8962 89.6859,67.0022 C91.4719,67.2122 92.9579,67.9862 94.1389,69.3272 C95.3219,70.6672 96.2279,72.2562 96.8589,74.0962 C97.4899,75.9352 97.8569,77.9192 97.9629,80.0472 C98.0669,82.1752 97.8959,84.1322 97.4499,85.9192 M68.1679,41.1482 C68.1139,42.4082 67.9959,43.5252 67.8119,44.4972 C67.6279,45.4712 67.3789,46.0872 67.0639,46.3502 C66.4849,46.0342 65.7749,45.2212 64.9349,43.9062 C64.0939,42.5932 63.4379,41.1072 62.9639,39.4522 C62.4919,37.7972 62.3459,36.1692 62.5309,34.5652 C62.7139,32.9632 63.5429,31.7162 65.0139,30.8212 C65.5909,30.5062 66.0899,30.6242 66.5119,31.1762 C66.9319,31.7282 67.2729,32.5292 67.5369,33.5802 C67.7989,34.6322 67.9819,35.8402 68.0879,37.2062 C68.1929,38.5732 68.2189,39.8862 68.1679,41.1482 M61.1909,56.8732 C60.3759,57.7392 59.4689,58.4882 58.4719,59.1192 C57.4729,59.7502 56.4479,60.2232 55.3979,60.5382 C54.3459,60.8542 53.3999,60.9322 52.5599,60.7742 C50.1949,60.3022 48.3819,59.2762 47.1219,57.7002 C45.8599,56.1242 45.0579,54.2722 44.7169,52.1442 C44.3749,50.0152 44.4139,47.7422 44.8359,45.3252 C45.2549,42.9082 45.9639,40.6622 46.9629,38.5862 C47.9619,36.5102 49.1709,34.7232 50.5889,33.2262 C52.0079,31.7282 53.5569,30.7962 55.2399,30.4272 C54.6089,33.1072 54.3989,35.8802 54.6089,38.7432 C54.8189,41.6072 55.5029,44.3002 56.6589,46.8222 C57.3939,48.3482 58.2749,49.7392 59.2989,51.0002 C60.3239,52.2622 61.5719,53.3392 63.0439,54.2322 C62.6229,55.1262 62.0049,56.0062 61.1909,56.8732 M148.4099,41.9362 C148.5669,40.7282 148.8029,39.4522 149.1189,38.1122 C149.4339,36.7732 149.8289,35.4722 150.3009,34.2112 C150.7739,32.9492 151.3259,31.8592 151.9569,30.9402 C152.5879,30.0212 153.2569,29.3632 153.9659,28.9692 C154.6759,28.5752 155.3979,28.6142 156.1339,29.0872 C156.9219,29.5612 157.4079,30.5592 157.5919,32.0822 C157.7759,33.6072 157.5919,35.2352 157.0409,36.9702 C156.4889,38.7042 155.5039,40.3332 154.0849,41.8562 C152.6669,43.3822 150.7479,44.3792 148.3309,44.8522 C148.2249,44.1172 148.2519,43.1452 148.4099,41.9362 M180.1759,41.9362 C180.3339,40.7282 180.5699,39.4522 180.8849,38.1122 C181.2009,36.7732 181.5949,35.4722 182.0679,34.2112 C182.5409,32.9492 183.0919,31.8592 183.7229,30.9402 C184.3539,30.0212 185.0239,29.3632 185.7329,28.9692 C186.4429,28.5752 187.1649,28.6142 187.9009,29.0872 C188.6889,29.5612 189.1739,30.5592 189.3589,32.0822 C189.5429,33.6072 189.3589,35.2352 188.8069,36.9702 C188.2549,38.7042 187.2699,40.3332 185.8509,41.8562 C184.4329,43.3822 182.5139,44.3792 180.0969,44.8522 C179.9919,44.1172 180.0179,43.1452 180.1759,41.9362 M209.6959,46.5472 C209.0909,45.8912 208.3559,45.4312 207.4889,45.1672 C206.6219,44.9052 205.7949,44.8792 205.0049,45.0892 C204.2169,45.2992 203.7169,45.8512 203.5079,46.7442 C203.0869,48.4262 202.4169,50.1472 201.4979,51.9062 C200.5779,53.6682 199.4489,55.3362 198.1089,56.9122 C196.7689,58.4882 195.2569,59.8822 193.5769,61.0902 C191.8939,62.2992 190.1339,63.1662 188.2959,63.6902 C186.4549,64.2702 184.9309,64.3352 183.7229,63.8882 C182.5139,63.4422 181.5549,62.6802 180.8459,61.6032 C180.1369,60.5252 179.6249,59.2252 179.3089,57.7002 C178.9939,56.1772 178.8089,54.6012 178.7569,52.9712 C181.7529,53.1822 184.4199,52.6442 186.7579,51.3552 C189.0949,50.0682 191.0799,48.3592 192.7099,46.2312 C194.3379,44.1042 195.5729,41.7132 196.4139,39.0592 C197.2539,36.4052 197.7269,33.7652 197.8329,31.1372 C197.8839,28.6672 197.5169,26.5782 196.7289,24.8702 C195.9409,23.1632 194.8769,21.8352 193.5369,20.8902 C192.1969,19.9432 190.6599,19.3922 188.9249,19.2342 C187.1919,19.0762 185.4299,19.3142 183.6439,19.9432 C181.4889,20.6802 179.6639,21.8752 178.1669,23.5302 C176.6689,25.1862 175.4199,27.1052 174.4219,29.2842 C173.4229,31.4662 172.6349,33.8162 172.0569,36.3392 C171.4779,38.8612 171.0579,41.3452 170.7969,43.7882 C170.5409,46.1592 170.4019,48.4282 170.3709,50.6002 C170.1719,51.0332 169.9599,51.4682 169.7309,51.9062 C168.8109,53.6682 167.6819,55.3362 166.3419,56.9122 C165.0029,58.4882 163.4909,59.8822 161.8099,61.0902 C160.1279,62.2992 158.3679,63.1662 156.5289,63.6902 C154.6879,64.2702 153.1649,64.3352 151.9569,63.8882 C150.7479,63.4422 149.7889,62.6802 149.0799,61.6032 C148.3709,60.5252 147.8579,59.2252 147.5429,57.7002 C147.2269,56.1772 147.0429,54.6012 146.9909,52.9712 C149.9859,53.1822 152.6529,52.6442 154.9919,51.3552 C157.3289,50.0682 159.3129,48.3592 160.9429,46.2312 C162.5709,44.1042 163.8059,41.7132 164.6469,39.0592 C165.4869,36.4052 165.9609,33.7652 166.0659,31.1372 C166.1179,28.6672 165.7509,26.5782 164.9629,24.8702 C164.1739,23.1632 163.1099,21.8352 161.7699,20.8902 C160.4299,19.9432 158.8929,19.3922 157.1589,19.2342 C155.4249,19.0762 153.6639,19.3142 151.8779,19.9432 C149.7219,20.6802 147.8969,21.8752 146.3999,23.5302 C144.9019,25.1862 143.6529,27.1052 142.6559,29.2842 C141.6569,31.4662 140.8689,33.8162 140.2909,36.3392 C139.7119,38.8612 139.2919,41.3452 139.0299,43.7882 C138.8809,45.1662 138.7809,46.5022 138.7079,47.8142 C138.1999,48.2462 137.7049,48.6812 137.1769,49.1082 C135.3649,50.5802 133.4589,51.9062 131.4629,53.0892 C129.4639,54.2722 127.3889,55.2442 125.2359,56.0062 C123.0799,56.7682 120.8729,57.2282 118.6139,57.3852 L123.5019,5.0462 C123.8169,3.9422 123.6589,2.9712 123.0289,2.1302 C122.3979,1.2892 121.5829,0.7112 120.5849,0.3962 C119.5869,0.0802 118.5219,0.1072 117.3919,0.4742 C116.2619,0.8432 115.3299,1.6842 114.5939,2.9962 C114.2259,4.9942 113.8449,7.7262 113.4519,11.1942 C113.0569,14.6622 112.6629,18.4462 112.2689,22.5452 C111.8749,26.6442 111.4809,30.8742 111.0869,35.2352 C110.6929,39.5982 110.3499,43.6702 110.0619,47.4532 C110.0489,47.6212 110.0379,47.7732 110.0249,47.9392 C109.5649,48.3292 109.1189,48.7222 108.6429,49.1082 C106.8309,50.5802 104.9239,51.9062 102.9279,53.0892 C100.9299,54.2722 98.8549,55.2442 96.7019,56.0062 C94.5459,56.7682 92.3379,57.2282 90.0799,57.3852 L94.9669,5.0462 C95.2829,3.9422 95.1249,2.9712 94.4949,2.1302 C93.8639,1.2892 93.0479,0.7112 92.0499,0.3962 C91.0519,0.0802 89.9879,0.1072 88.8579,0.4742 C87.7279,0.8432 86.7959,1.6842 86.0599,2.9962 C85.6919,4.9942 85.3109,7.7262 84.9179,11.1942 C84.5229,14.6622 84.1289,18.4462 83.7349,22.5452 C83.3399,26.6442 82.9469,30.8742 82.5519,35.2352 C82.1589,39.5982 81.8159,43.6702 81.5279,47.4532 C81.5219,47.5292 81.5169,47.5982 81.5109,47.6742 C80.6849,48.0572 79.7849,48.3932 78.8079,48.6752 C77.8089,48.9652 76.6799,49.1362 75.4189,49.1882 C75.6289,48.2412 75.7989,47.1902 75.9309,46.0342 C76.0619,44.8792 76.1679,43.6702 76.2469,42.4082 C76.3259,41.1482 76.3509,39.8862 76.3259,38.6252 C76.2979,37.3632 76.2329,36.2082 76.1289,35.1562 C75.8649,32.8982 75.3799,30.7562 74.6709,28.7322 C73.9609,26.7102 73.0019,25.0162 71.7939,23.6482 C70.5839,22.2822 69.0739,21.3622 67.2599,20.8902 C65.4479,20.4172 63.3319,20.5742 60.9159,21.3622 C57.3409,20.8902 54.1229,21.2192 51.2589,22.3482 C48.3949,23.4792 45.9119,25.1202 43.8099,27.2742 C41.7089,29.4302 39.9879,31.9642 38.6479,34.8812 C37.3069,37.7972 36.4139,40.7932 35.9669,43.8662 C35.7779,45.1692 35.6859,46.4662 35.6579,47.7602 C34.8449,49.4262 33.9539,50.8822 32.9719,52.1042 C31.5799,53.8382 30.1349,55.2572 28.6369,56.3602 C27.1389,57.4642 25.6539,58.3052 24.1839,58.8832 C22.7119,59.4622 21.3979,59.8562 20.2429,60.0652 C18.8759,60.3282 17.5619,60.3552 16.3009,60.1442 C15.0409,59.9352 13.8829,59.3302 12.8339,58.3312 C11.9919,57.5962 11.3479,56.4132 10.9019,54.7842 C10.4549,53.1552 10.1929,51.3042 10.1139,49.2272 C10.0349,47.1512 10.1139,44.9832 10.3499,42.7242 C10.5869,40.4652 10.9929,38.3232 11.5719,36.3002 C12.1499,34.2772 12.8839,32.4642 13.7789,30.8602 C14.6709,29.2592 15.7219,28.1152 16.9319,27.4322 C17.6139,27.5382 18.0359,27.9442 18.1929,28.6532 C18.3509,29.3632 18.3899,30.2042 18.3109,31.1762 C18.2329,32.1492 18.1139,33.1472 17.9569,34.1712 C17.7989,35.1962 17.7199,36.0512 17.7199,36.7332 C17.9829,38.1522 18.4949,39.2562 19.2569,40.0442 C20.0179,40.8322 20.8739,41.2932 21.8189,41.4232 C22.7649,41.5552 23.6969,41.3322 24.6179,40.7532 C25.5359,40.1762 26.2849,39.2562 26.8639,37.9942 C26.9159,38.0472 26.9949,38.0732 27.0999,38.0732 L28.2039,28.0632 C28.5189,26.6962 28.3079,25.4882 27.5729,24.4372 C26.8369,23.3862 25.8649,22.7812 24.6569,22.6242 C23.1319,20.4172 21.0699,19.2482 18.4689,19.1162 C15.8679,18.9852 13.1999,19.8392 10.4679,21.6782 C8.7859,22.8882 7.3019,24.5552 6.0149,26.6832 C4.7259,28.8122 3.6759,31.1762 2.8619,33.7772 C2.0459,36.3782 1.4689,39.1252 1.1279,42.0152 C0.7859,44.9052 0.7199,47.7172 0.9299,50.4482 C1.1399,53.1822 1.6269,55.7572 2.3889,58.1732 C3.1499,60.5912 4.2139,62.6142 5.5819,64.2422 C6.7369,65.6612 8.0499,66.7002 9.5219,67.3572 C10.9929,68.0142 12.5299,68.4202 14.1329,68.5782 C15.7359,68.7352 17.3259,68.6692 18.9029,68.3812 C20.4789,68.0932 21.9769,67.6862 23.3949,67.1592 C25.2339,66.4772 27.1269,65.6092 29.0709,64.5582 C31.0139,63.5082 32.8799,62.2462 34.6679,60.7742 C35.6069,60.0002 36.5119,59.1562 37.3869,58.2512 C37.7849,59.2392 38.2299,60.1952 38.7659,61.0902 C40.1849,63.4542 42.1019,65.3732 44.5199,66.8442 C46.9359,68.3152 49.9059,69.0232 53.4269,68.9722 C57.2109,68.9192 60.7049,67.9612 63.9109,66.0952 C67.1159,64.2312 69.7439,61.4832 71.7939,57.8582 C74.8639,57.8582 77.8829,57.3522 80.8519,56.3472 C80.8279,56.6652 80.8019,57.0002 80.7789,57.3072 C80.5699,60.0922 80.4629,61.9832 80.4629,62.9822 C80.4119,64.7162 80.2939,66.8572 80.1089,69.4052 C79.9249,71.9542 79.8069,74.6342 79.7549,77.4452 C79.7029,80.2562 79.8069,83.0942 80.0699,85.9592 C80.3329,88.8222 80.8839,91.4242 81.7249,93.7632 C82.5649,96.1002 83.7599,98.0842 85.3109,99.7142 C86.8609,101.3422 88.8979,102.3152 91.4209,102.6302 C94.0999,102.9972 96.4119,102.5242 98.3569,101.2112 C100.2999,99.8972 101.8769,98.0982 103.0869,95.8122 C104.2949,93.5252 105.1479,90.8852 105.6479,87.8902 C106.1469,84.8952 106.2909,81.8862 106.0819,78.8642 C105.8709,75.8422 105.3189,72.9922 104.4259,70.3132 C103.5319,67.6322 102.2969,65.4252 100.7209,63.6902 C101.6679,63.4292 102.7969,62.9302 104.1109,62.1932 C105.4229,61.4582 106.7769,60.6302 108.1709,59.7102 C108.5119,59.4842 108.8499,59.2462 109.1909,59.0142 C109.0629,60.8762 108.9979,62.2042 108.9979,62.9822 C108.9459,64.7162 108.8279,66.8572 108.6429,69.4052 C108.4599,71.9542 108.3409,74.6342 108.2889,77.4452 C108.2369,80.2562 108.3409,83.0942 108.6039,85.9592 C108.8669,88.8222 109.4189,91.4242 110.2589,93.7632 C111.0989,96.1002 112.2949,98.0842 113.8449,99.7142 C115.3949,101.3422 117.4319,102.3152 119.9549,102.6302 C122.6339,102.9972 124.9459,102.5242 126.8909,101.2112 C128.8349,99.8972 130.4109,98.0982 131.6209,95.8122 C132.8289,93.5252 133.6819,90.8852 134.1819,87.8902 C134.6809,84.8952 134.8249,81.8862 134.6159,78.8642 C134.4049,75.8422 133.8529,72.9922 132.9609,70.3132 C132.0659,67.6322 130.8319,65.4252 129.2549,63.6902 C130.2019,63.4292 131.3309,62.9302 132.6449,62.1932 C133.9579,61.4582 135.3109,60.6302 136.7049,59.7102 C137.4279,59.2322 138.1479,58.7392 138.8649,58.2322 C139.1359,60.8022 139.7179,63.0562 140.6449,64.9522 C141.7749,67.2652 143.3119,69.0512 145.2559,70.3132 C147.1999,71.5732 149.4859,72.2702 152.1149,72.4012 C154.7419,72.5312 157.6049,72.0462 160.7069,70.9422 C163.0179,70.1022 165.0279,69.0512 166.7359,67.7902 C168.4429,66.5282 169.9799,64.9912 171.3469,63.1792 C171.4259,63.0742 171.5009,62.9602 171.5779,62.8542 C171.8209,63.5902 172.0909,64.2972 172.4119,64.9522 C173.5419,67.2652 175.0789,69.0512 177.0229,70.3132 C178.9659,71.5732 181.2529,72.2702 183.8809,72.4012 C186.5079,72.5312 189.3719,72.0462 192.4729,70.9422 C194.7849,70.1022 196.7949,69.0512 198.5029,67.7902 C200.2099,66.5282 201.7469,64.9912 203.1139,63.1792 C204.4799,61.3652 205.7269,59.2762 206.8579,56.9122 C207.9879,54.5472 209.1299,51.8422 210.2869,48.7932 C210.4969,47.9532 210.2989,47.2042 209.6959,46.5472" id="Fill-11"></path>
                </g>
            </g>
        </g>
    </g>
</svg>